<svg width="16" height="16" viewBox="0 0 16 16" fill="none" xmlns="http://www.w3.org/2000/svg">
<path d="M12.3184 5.74461L13.496 4.50386C14.9992 5.41756 16 6.68023 16 8.07944C16 10.8728 12.0336 13.1309 8 13.1368C7.17917 13.1368 6.3606 13.0464 5.5576 12.8671L6.9552 11.3954C7.296 11.4325 7.6448 11.4519 7.9976 11.451H7.9992C7.6672 11.451 7.3472 11.3979 7.0464 11.2993L8.6312 9.6287C9.0072 9.45843 9.3088 9.14066 9.4712 8.74449L11.0552 7.07471C11.2043 7.57802 11.2394 8.11117 11.1575 8.63133C11.0755 9.15149 10.879 9.64416 10.5836 10.0698C10.2882 10.4954 9.90214 10.842 9.4565 11.0819C9.01086 11.3218 8.51803 11.4482 8.0176 11.451C11.4136 11.4384 14.4 9.61015 14.4 8.07944C14.4 7.28459 13.5824 6.40544 12.3184 5.74461ZM4.8768 8.81698C4.77196 8.32423 4.77351 7.81296 4.88133 7.32092C4.98916 6.82888 5.2005 6.36865 5.49977 5.9742C5.79903 5.57976 6.17857 5.26118 6.61035 5.042C7.04213 4.82281 7.51512 4.70861 7.9944 4.70784C4.62 4.6952 1.6 6.54368 1.6 8.07944C1.6 8.83468 2.3232 9.66157 3.4616 10.3081L2.2952 11.5353C0.9072 10.6317 0 9.41544 0 8.07944C0 5.28607 3.9872 3.00771 8 3.02204C8.7312 3.02457 9.4616 3.10127 10.1672 3.24288L8.7456 4.73987C8.5136 4.72133 8.2784 4.71037 8.0416 4.70784C8.2672 4.71121 8.4872 4.73903 8.7 4.78876L4.876 8.81698H4.8768ZM15.2736 0.246369C15.4236 0.404436 15.5078 0.618792 15.5078 0.842299C15.5078 1.06581 15.4236 1.28016 15.2736 1.43823L1.6976 15.7423C1.62386 15.8228 1.53562 15.8871 1.43805 15.9313C1.34048 15.9756 1.23552 15.9989 1.1293 16C1.02307 16.001 0.917717 15.9798 0.819373 15.9375C0.721029 15.8951 0.631666 15.8326 0.556499 15.7535C0.481333 15.6745 0.421867 15.5804 0.381573 15.4768C0.341279 15.3733 0.320963 15.2623 0.32181 15.1504C0.322657 15.0385 0.344651 14.9278 0.386507 14.825C0.428364 14.7221 0.489246 14.629 0.5656 14.5512L14.1416 0.247211C14.2159 0.168842 14.3041 0.10667 14.4012 0.0642517C14.4984 0.0218333 14.6025 0 14.7076 0C14.8127 0 14.9168 0.0218333 15.014 0.0642517C15.1111 0.10667 15.1993 0.168842 15.2736 0.247211V0.246369Z" fill="#C4C4C4"/>
</svg>
