<svg width="24" height="25" viewBox="0 0 24 25" fill="none" xmlns="http://www.w3.org/2000/svg">
<g opacity="0.7">
<path d="M20.5556 10.2002H3.44444C2.09441 10.2002 1 11.2299 1 12.5002V21.7002C1 22.9705 2.09441 24.0002 3.44444 24.0002H20.5556C21.9056 24.0002 23 22.9705 23 21.7002V12.5002C23 11.2299 21.9056 10.2002 20.5556 10.2002Z" stroke="#C4C4C4" stroke-width="2" stroke-linecap="round" stroke-linejoin="round"/>
<path d="M4.66663 10.2V4.45001C4.66663 3.53501 5.05293 2.65749 5.74057 2.01048C6.4282 1.36348 7.36083 1 8.33329 1H15.6666C16.6391 1 17.5717 1.36348 18.2594 2.01048C18.947 2.65749 19.3333 3.53501 19.3333 4.45001V5.60001" stroke="#C4C4C4" stroke-width="2" stroke-linecap="round" stroke-linejoin="round"/>
</g>
</svg>
