<svg width="16" height="18" viewBox="0 0 16 18" fill="none" xmlns="http://www.w3.org/2000/svg">
<path fill-rule="evenodd" clip-rule="evenodd" d="M13.8799 6.93993C13.8799 8.45359 13.3953 9.85406 12.5728 10.9947L15.6267 14.5034C16.1776 15.1364 16.1111 16.096 15.4781 16.6469C14.8452 17.1977 13.8856 17.1312 13.3347 16.4983L10.3012 13.013C9.30539 13.5653 8.15939 13.8799 6.93993 13.8799C3.10711 13.8799 0 10.7728 0 6.93993C0 3.10711 3.10711 0 6.93993 0C10.7728 0 13.8799 3.10711 13.8799 6.93993ZM6.93999 11.2107C9.29865 11.2107 11.2107 9.29868 11.2107 6.94002C11.2107 4.58136 9.29865 2.66929 6.93999 2.66929C4.58133 2.66929 2.66926 4.58136 2.66926 6.94002C2.66926 9.29868 4.58133 11.2107 6.93999 11.2107Z" fill="#79AACB"/>
</svg>
